<?xml version="1.0" encoding="UTF-8"?><svg xmlns="http://www.w3.org/2000/svg" xmlns:xlink="http://www.w3.org/1999/xlink" fill-opacity="1" color-rendering="auto" color-interpolation="auto" text-rendering="auto" stroke="black" stroke-linecap="square" width="236" stroke-miterlimit="10" shape-rendering="auto" stroke-opacity="1" fill="black" stroke-dasharray="none" font-weight="normal" stroke-width="1" height="242" font-family="'Dialog'" font-style="normal" stroke-linejoin="miter" font-size="12px" stroke-dashoffset="0" image-rendering="auto">
  <!--Generated by ySVG 2.5-->
  <defs id="genericDefs"/>
  <g>
    <defs id="defs1">
      <linearGradient x1="163.6667" gradientUnits="userSpaceOnUse" x2="229" y1="375" y2="375" id="linearGradient1" spreadMethod="reflect">
        <stop stop-opacity="1" stop-color="rgb(1,35,63)" offset="0%"/>
        <stop stop-opacity="1" stop-color="rgb(1,35,63)" offset="100%"/>
      </linearGradient>
      <clipPath clipPathUnits="userSpaceOnUse" id="clipPath1">
        <path d="M0 0 L236 0 L236 242 L0 242 L0 0 Z"/>
      </clipPath>
      <clipPath clipPathUnits="userSpaceOnUse" id="clipPath2">
        <path d="M62 284 L298 284 L298 526 L62 526 L62 284 Z"/>
      </clipPath>
    </defs>
    <g fill="rgb(1,35,63)" text-rendering="geometricPrecision" shape-rendering="geometricPrecision" transform="matrix(1,0,0,1,-62,-284)" stroke="rgb(1,35,63)">
      <ellipse rx="103" ry="106" clip-path="url(#clipPath2)" cx="180" cy="405" stroke="none"/>
    </g>
    <g stroke-linecap="butt" font-size="32px" transform="matrix(1,0,0,1,-62,-284)" fill="rgb(242,175,88)" text-rendering="geometricPrecision" font-family="'Tahoma'" shape-rendering="geometricPrecision" stroke="rgb(242,175,88)" stroke-miterlimit="1.45">
      <text x="116.5391" xml:space="preserve" y="464.7031" clip-path="url(#clipPath2)" stroke="none">Gopinath</text>
    </g>
    <g stroke-linecap="butt" transform="matrix(1,0,0,1,-62,-284)" fill="rgb(1,35,63)" text-rendering="geometricPrecision" shape-rendering="geometricPrecision" stroke="rgb(1,35,63)" stroke-miterlimit="1.45">
      <ellipse rx="103" fill="none" ry="106" clip-path="url(#clipPath2)" cx="180" cy="405"/>
      <path fill="none" d="M121 360 L132.8 345 L227.2 345 L239 360 L227.2 375 L132.8 375 Z" stroke-width="5" clip-path="url(#clipPath2)" fill-rule="evenodd" stroke="white"/>
    </g>
    <g fill="url(#linearGradient1)" text-rendering="geometricPrecision" shape-rendering="geometricPrecision" transform="matrix(1,0,0,1,-62,-284)" stroke="url(#linearGradient1)">
      <rect x="131" y="375" clip-path="url(#clipPath2)" width="98" rx="4" ry="4" height="30" stroke="none"/>
    </g>
    <g stroke-linecap="butt" transform="matrix(1,0,0,1,-62,-284)" fill="rgb(1,35,63)" text-rendering="geometricPrecision" shape-rendering="geometricPrecision" stroke="rgb(1,35,63)" stroke-width="6" stroke-miterlimit="1.45">
      <rect x="131" y="375" clip-path="url(#clipPath2)" fill="none" width="98" rx="4" ry="4" height="30"/>
      <circle stroke-linecap="square" clip-path="url(#clipPath2)" r="35" cx="180" cy="390" stroke="none" stroke-width="1" stroke-miterlimit="10"/>
      <circle clip-path="url(#clipPath2)" fill="none" r="35" cx="180" cy="390" stroke="rgb(242,175,88)" stroke-width="3"/>
      <ellipse stroke-linecap="square" clip-path="url(#clipPath2)" rx="35" cx="180" ry="14" cy="390" stroke="none" stroke-width="1" stroke-miterlimit="10"/>
      <ellipse clip-path="url(#clipPath2)" fill="none" rx="35" cx="180" ry="14" cy="390" stroke="rgb(242,175,88)" stroke-width="3"/>
      <ellipse clip-path="url(#clipPath2)" fill="none" rx="8" cx="180" ry="35" cy="390" stroke="rgb(242,175,88)" stroke-width="3"/>
      <ellipse clip-path="url(#clipPath2)" fill="none" rx="16" cx="180" ry="35" cy="390" stroke="rgb(242,175,88)" stroke-width="3"/>
      <ellipse clip-path="url(#clipPath2)" fill="none" rx="26" cx="180" ry="35" cy="390" stroke="rgb(242,175,88)" stroke-width="3"/>
    </g>
  </g>
</svg>
